STARTFONT 2.1
COMMENT
COMMENT Converted from OpenType font "..\ttf\ITC Avant Garde Gothic Book Condensed.otf" by "otf2bdf.exe 3.0".
COMMENT
FONT -FreeType-AvantGarde CondBook-Medium-R-Normal--36-260-100-100-P-149-ISO10646-1
SIZE 26 100 100
FONTBOUNDINGBOX 42 43 -6 -7
STARTPROPERTIES 19
FOUNDRY "FreeType"
FAMILY_NAME "AvantGarde CondBook"
WEIGHT_NAME "Medium"
SLANT "R"
SETWIDTH_NAME "Normal"
ADD_STYLE_NAME ""
PIXEL_SIZE 36
POINT_SIZE 260
RESOLUTION_X 100
RESOLUTION_Y 100
SPACING "P"
AVERAGE_WIDTH 149
CHARSET_REGISTRY "ISO10646"
CHARSET_ENCODING "1"
FONT_ASCENT 26
FONT_DESCENT 7
COPYRIGHT "Copyright (c) 1989, 1990 Adobe Systems Incorporated.  All Rights Reserved.Avant Garde Gothic is a registered trademark of International Typeface Corporation."
_OTF_FONTFILE "..\ttf\ITC Avant Garde Gothic Book Condensed.otf"
_OTF_PSNAME "AvantGarde-CondBook"
ENDPROPERTIES
CHARS 235
STARTCHAR 0020
ENCODING 32
SWIDTH 276 0
DWIDTH 10 0
BBX 0 0 0 0
BITMAP
ENDCHAR
STARTCHAR 0021
ENCODING 33
SWIDTH 221 0
DWIDTH 8 0
BBX 3 26 3 0
BITMAP
E0
E0
E0
E0
E0
E0
E0
E0
E0
E0
E0
E0
E0
E0
E0
E0
E0
E0
E0
00
00
00
E0
E0
E0
E0
ENDCHAR
STARTCHAR 0022
ENCODING 34
SWIDTH 332 0
DWIDTH 12 0
BBX 6 10 3 16
BITMAP
CC
CC
CC
CC
CC
CC
CC
CC
CC
CC
ENDCHAR
STARTCHAR 0023
ENCODING 35
SWIDTH 553 0
DWIDTH 20 0
BBX 18 26 1 1
BITMAP
038700
030600
030600
030600
030600
070E00
070E00
070E00
7FFFC0
7FFFC0
060C00
060C00
0E0C00
0E1C00
0E1C00
0E1C00
FFFF80
FFFF80
0C1800
0C1800
1C3800
1C3800
1C3800
183000
183000
183000
ENDCHAR
STARTCHAR 0024
ENCODING 36
SWIDTH 553 0
DWIDTH 20 0
BBX 16 33 2 -5
BITMAP
0180
0180
0180
0FE0
1FF8
3FFC
701C
701E
E00E
E00E
E000
E000
7000
7C00
3F00
0FE0
03F8
00FC
001E
000E
0007
0007
0007
E007
E007
F00E
781E
7FFC
3FF8
0FE0
0180
0180
0180
ENDCHAR
STARTCHAR 0025
ENCODING 37
SWIDTH 886 0
DWIDTH 32 0
BBX 29 26 2 0
BITMAP
0F801800
3FE03000
70F03000
70707000
E0386000
E038E000
E038C000
E039C000
E0398000
70718000
78730000
3FE30000
0F870000
00060F80
000E3FE0
000C70F0
001C6070
0018E038
0018E038
0030E038
0030E038
0070E038
00607070
00E07070
00C03FE0
01C00F80
ENDCHAR
STARTCHAR 0026
ENCODING 38
SWIDTH 609 0
DWIDTH 22 0
BBX 20 26 1 0
BITMAP
03C000
0FF000
0FF000
1C3800
1C3800
1C3800
1C3800
1C3800
1C7000
0EE000
0FE020
078070
0F80E0
3DC0E0
39C1C0
70E1C0
E07380
E07B00
E03F00
E01E00
E00E00
F01F00
703F80
7EFB80
3FF1C0
0FC1E0
ENDCHAR
STARTCHAR 0027
ENCODING 39
SWIDTH 221 0
DWIDTH 8 0
BBX 2 10 3 16
BITMAP
C0
C0
C0
C0
C0
C0
C0
C0
C0
C0
ENDCHAR
STARTCHAR 0028
ENCODING 40
SWIDTH 387 0
DWIDTH 14 0
BBX 11 34 3 -6
BITMAP
0020
00E0
01E0
0380
0700
0E00
1C00
1C00
3800
3000
7000
7000
6000
E000
E000
E000
E000
E000
E000
E000
E000
6000
7000
7000
3800
3800
1C00
1C00
0E00
0700
03C0
01E0
00E0
0020
ENDCHAR
STARTCHAR 0029
ENCODING 41
SWIDTH 387 0
DWIDTH 14 0
BBX 11 34 1 -6
BITMAP
8000
E000
F000
3800
1C00
0E00
0700
0700
0380
0380
01C0
01C0
01C0
00E0
00E0
00E0
00E0
00E0
00E0
00E0
00E0
01C0
01C0
01C0
0380
0380
0700
0700
0E00
1C00
7800
F000
E000
8000
ENDCHAR
STARTCHAR 002A
ENCODING 42
SWIDTH 443 0
DWIDTH 16 0
BBX 12 13 2 12
BITMAP
0600
0600
4620
E670
F6F0
1D80
0600
1F80
F6F0
E670
4620
0600
0600
ENDCHAR
STARTCHAR 002B
ENCODING 43
SWIDTH 609 0
DWIDTH 22 0
BBX 19 19 1 0
BITMAP
00E000
00E000
00E000
00E000
00E000
00E000
00E000
00E000
FFFFE0
FFFFE0
FFFFE0
00E000
00E000
00E000
00E000
00E000
00E000
00E000
00E000
ENDCHAR
STARTCHAR 002C
ENCODING 44
SWIDTH 276 0
DWIDTH 10 0
BBX 6 8 0 -4
BITMAP
0C
1C
18
38
30
70
60
E0
ENDCHAR
STARTCHAR 002D
ENCODING 45
SWIDTH 332 0
DWIDTH 12 0
BBX 9 2 2 8
BITMAP
FF80
FF80
ENDCHAR
STARTCHAR 002E
ENCODING 46
SWIDTH 276 0
DWIDTH 10 0
BBX 3 4 4 0
BITMAP
E0
E0
E0
E0
ENDCHAR
STARTCHAR 002F
ENCODING 47
SWIDTH 276 0
DWIDTH 10 0
BBX 11 26 -1 0
BITMAP
00E0
00E0
00C0
01C0
01C0
0180
0380
0380
0300
0700
0700
0600
0E00
0E00
0C00
1C00
1C00
1800
3800
3800
3000
7000
7000
6000
E000
E000
ENDCHAR
STARTCHAR 0030
ENCODING 48
SWIDTH 553 0
DWIDTH 20 0
BBX 18 26 1 0
BITMAP
03F000
0FFC00
1FFE00
3C0F00
380700
780780
700380
700380
6001C0
E001C0
E001C0
E001C0
E001C0
E001C0
E001C0
E001C0
E001C0
600180
700380
700380
780380
380700
3C0F00
1FFE00
0FFC00
03F000
ENDCHAR
STARTCHAR 0031
ENCODING 49
SWIDTH 553 0
DWIDTH 20 0
BBX 7 26 5 0
BITMAP
FE
FE
0E
0E
0E
0E
0E
0E
0E
0E
0E
0E
0E
0E
0E
0E
0E
0E
0E
0E
0E
0E
0E
0E
0E
0E
ENDCHAR
STARTCHAR 0032
ENCODING 50
SWIDTH 553 0
DWIDTH 20 0
BBX 15 26 2 0
BITMAP
07E0
1FF8
3EFC
781C
700E
E00E
E00E
E00E
000E
000E
001C
001C
0038
0070
00F0
01E0
03C0
0780
0700
0E00
1C00
3800
7000
E000
FFFE
FFFE
ENDCHAR
STARTCHAR 0033
ENCODING 51
SWIDTH 553 0
DWIDTH 20 0
BBX 17 26 1 0
BITMAP
03F000
0FFC00
1F3E00
380E00
780700
700700
700700
000700
000700
000E00
001C00
01F800
01FC00
001E00
000700
000700
000380
000380
E00380
E00380
E00380
700700
780700
3F3E00
1FFC00
07F000
ENDCHAR
STARTCHAR 0034
ENCODING 52
SWIDTH 553 0
DWIDTH 20 0
BBX 17 26 1 0
BITMAP
003C00
007C00
007C00
00FC00
00DC00
01DC00
019C00
039C00
071C00
071C00
0E1C00
0E1C00
1C1C00
1C1C00
381C00
301C00
701C00
E01C00
FFFF80
FFFF80
001C00
001C00
001C00
001C00
001C00
001C00
ENDCHAR
STARTCHAR 0035
ENCODING 53
SWIDTH 553 0
DWIDTH 20 0
BBX 16 26 2 0
BITMAP
3FFC
3FFC
3000
3000
3000
3000
3000
7000
73E0
7FF8
7C3C
780E
700E
7007
2007
0007
0007
0007
E007
E007
E00E
F00E
781C
3EFC
1FF0
0FE0
ENDCHAR
STARTCHAR 0036
ENCODING 54
SWIDTH 553 0
DWIDTH 20 0
BBX 17 26 1 0
BITMAP
03F800
0FFE00
1FFF00
3C0F00
380780
700380
700380
700000
60E000
E7F800
EFFE00
FE1E00
F80F00
F00700
F00380
F00380
F00380
F00380
700380
700380
700380
380700
3C0F00
1FFE00
0FFC00
03F000
ENDCHAR
STARTCHAR 0037
ENCODING 55
SWIDTH 553 0
DWIDTH 20 0
BBX 16 26 2 0
BITMAP
FFFF
FFFF
FFFF
0007
000E
000E
000E
001C
001C
0038
0038
0038
0070
0070
00F0
00E0
00E0
01C0
01C0
01C0
0380
0380
0780
0700
0700
0F00
ENDCHAR
STARTCHAR 0038
ENCODING 56
SWIDTH 553 0
DWIDTH 20 0
BBX 17 26 1 0
BITMAP
07F000
1FFC00
3F7E00
380E00
700700
700700
700700
700700
380F00
3C1E00
1FFC00
0FF800
1FFE00
3C1F00
700700
700780
E00380
E00380
E00380
E00380
F00380
700700
780F00
3F7E00
1FFC00
07F000
ENDCHAR
STARTCHAR 0039
ENCODING 57
SWIDTH 553 0
DWIDTH 20 0
BBX 18 26 1 0
BITMAP
03F000
0FFC00
3FFE00
380F00
700700
700380
E00380
E003C0
E003C0
E003C0
E003C0
7003C0
7807C0
3C1FC0
3FFDC0
0FF9C0
03E1C0
000180
000380
E00380
F00300
700700
780E00
3FFE00
1FF800
07E000
ENDCHAR
STARTCHAR 003A
ENCODING 58
SWIDTH 276 0
DWIDTH 10 0
BBX 3 17 4 0
BITMAP
E0
E0
E0
E0
00
00
00
00
00
00
00
00
00
E0
E0
E0
E0
ENDCHAR
STARTCHAR 003B
ENCODING 59
SWIDTH 276 0
DWIDTH 10 0
BBX 6 21 0 -4
BITMAP
1C
1C
1C
1C
00
00
00
00
00
00
00
00
00
1C
18
18
30
30
60
60
C0
ENDCHAR
STARTCHAR 003C
ENCODING 60
SWIDTH 609 0
DWIDTH 22 0
BBX 18 18 2 0
BITMAP
0001C0
0007C0
001F80
007E00
01F800
07E000
1F0000
7C0000
F00000
F80000
7E0000
1F8000
03F000
00FC00
003F00
000FC0
0003C0
0000C0
ENDCHAR
STARTCHAR 003D
ENCODING 61
SWIDTH 609 0
DWIDTH 22 0
BBX 18 10 2 4
BITMAP
FFFFC0
FFFFC0
FFFFC0
000000
000000
000000
000000
FFFFC0
FFFFC0
FFFFC0
ENDCHAR
STARTCHAR 003E
ENCODING 62
SWIDTH 609 0
DWIDTH 22 0
BBX 18 19 2 0
BITMAP
800000
E00000
F80000
7E0000
0FC000
03F000
00FC00
003F00
000FC0
0001C0
000FC0
003F00
00FC00
03F000
0FC000
7E0000
F80000
E00000
800000
ENDCHAR
STARTCHAR 003F
ENCODING 63
SWIDTH 443 0
DWIDTH 16 0
BBX 14 26 1 0
BITMAP
0FC0
3FF0
7EF8
7038
E01C
E01C
E01C
E01C
001C
003C
0078
00F0
01E0
03C0
0780
0700
0700
0700
0700
0700
0000
0000
0700
0700
0700
0700
ENDCHAR
STARTCHAR 0040
ENCODING 64
SWIDTH 803 0
DWIDTH 29 0
BBX 27 26 1 0
BITMAP
003FC000
01FFF800
03E0FE00
0F001F00
1E000780
1C0F03C0
383F99C0
707FF9E0
70F0F8E0
71E0F0E0
E1C070E0
E1C070E0
E38060E0
E380E0E0
E380E1C0
E381C1C0
7381C380
73C3C700
79FFFE00
38FDFC00
1C78F1C0
1E000780
0F800F00
03F07C00
01FFF800
003FC000
ENDCHAR
STARTCHAR 0041
ENCODING 65
SWIDTH 498 0
DWIDTH 18 0
BBX 18 26 0 0
BITMAP
01E000
01E000
03E000
03F000
037000
033000
073800
073800
063800
0E1800
0E1C00
0C1C00
0C0C00
1C0E00
1C0E00
180E00
1FFE00
3FFF00
380700
300300
700300
700380
600380
600180
E001C0
E001C0
ENDCHAR
STARTCHAR 0042
ENCODING 66
SWIDTH 553 0
DWIDTH 20 0
BBX 16 26 3 0
BITMAP
FFE0
FFF8
E0FC
E01C
E01E
E00E
E00E
E00E
E00E
E00C
E01C
E078
FFF0
FFF8
E03C
E00E
E007
E007
E007
E007
E007
E007
E00E
E07E
FFF8
FFF0
ENDCHAR
STARTCHAR 0043
ENCODING 67
SWIDTH 553 0
DWIDTH 20 0
BBX 18 26 1 0
BITMAP
03F000
07FC00
1F3F00
1C0700
380380
300380
7001C0
7001C0
6001C0
E001C0
E00000
E00000
E00000
E00000
E00000
E00000
E00000
6001C0
7001C0
7001C0
780180
380380
1C0700
1FBF00
0FFE00
03F000
ENDCHAR
STARTCHAR 0044
ENCODING 68
SWIDTH 609 0
DWIDTH 22 0
BBX 18 26 3 0
BITMAP
FFE000
FFF800
E07C00
E00E00
E00700
E00700
E00380
E00380
E00180
E001C0
E001C0
E001C0
E001C0
E001C0
E001C0
E001C0
E001C0
E00180
E00380
E00380
E00700
E00700
E00E00
E07C00
FFF800
FFE000
ENDCHAR
STARTCHAR 0045
ENCODING 69
SWIDTH 498 0
DWIDTH 18 0
BBX 13 26 3 0
BITMAP
FFF8
FFF8
E000
E000
E000
E000
E000
E000
E000
E000
E000
FFF8
FFF8
E000
E000
E000
E000
E000
E000
E000
E000
E000
E000
E000
FFF8
FFF8
ENDCHAR
STARTCHAR 0046
ENCODING 70
SWIDTH 443 0
DWIDTH 16 0
BBX 12 26 3 0
BITMAP
FFF0
FFF0
E000
E000
E000
E000
E000
E000
E000
E000
E000
FFF0
FFF0
E000
E000
E000
E000
E000
E000
E000
E000
E000
E000
E000
E000
E000
ENDCHAR
STARTCHAR 0047
ENCODING 71
SWIDTH 609 0
DWIDTH 22 0
BBX 20 26 1 0
BITMAP
01F800
07FF00
1F9F80
1C03C0
3801C0
7000E0
7000E0
7000E0
600000
E00000
E00000
E00000
E00000
E0FFF0
E0FFF0
E00070
E00070
700070
700070
7000E0
3800E0
3800E0
1C01C0
0F9F80
07FF00
01FC00
ENDCHAR
STARTCHAR 0048
ENCODING 72
SWIDTH 609 0
DWIDTH 22 0
BBX 17 26 3 0
BITMAP
E00380
E00380
E00380
E00380
E00380
E00380
E00380
E00380
E00380
E00380
E00380
FFFF80
FFFF80
E00380
E00380
E00380
E00380
E00380
E00380
E00380
E00380
E00380
E00380
E00380
E00380
E00380
ENDCHAR
STARTCHAR 0049
ENCODING 73
SWIDTH 221 0
DWIDTH 8 0
BBX 3 26 3 0
BITMAP
E0
E0
E0
E0
E0
E0
E0
E0
E0
E0
E0
E0
E0
E0
E0
E0
E0
E0
E0
E0
E0
E0
E0
E0
E0
E0
ENDCHAR
STARTCHAR 004A
ENCODING 74
SWIDTH 443 0
DWIDTH 16 0
BBX 14 26 0 0
BITMAP
001C
001C
001C
001C
001C
001C
001C
001C
001C
001C
001C
001C
001C
001C
001C
001C
001C
001C
001C
E01C
E01C
E01C
7038
7CF8
3FF0
0FC0
ENDCHAR
STARTCHAR 004B
ENCODING 75
SWIDTH 553 0
DWIDTH 20 0
BBX 17 26 3 0
BITMAP
E00F00
E01E00
E01C00
E03800
E07800
E07000
E0E000
E1C000
E1C000
E38000
E78000
EFC000
EFC000
FDE000
F8E000
F0F000
F07000
E03800
E03800
E01C00
E01C00
E00E00
E00E00
E00700
E00780
E00380
ENDCHAR
STARTCHAR 004C
ENCODING 76
SWIDTH 443 0
DWIDTH 16 0
BBX 13 26 3 0
BITMAP
E000
E000
E000
E000
E000
E000
E000
E000
E000
E000
E000
E000
E000
E000
E000
E000
E000
E000
E000
E000
E000
E000
E000
E000
FFF8
FFF8
ENDCHAR
STARTCHAR 004D
ENCODING 77
SWIDTH 720 0
DWIDTH 26 0
BBX 21 26 3 0
BITMAP
F00078
F800F8
F800F8
F800F8
FC01F8
FC01F8
FC01B8
EC01B8
EE03B8
EE03B8
E60338
E70338
E70738
E30638
E38638
E38E38
E18E38
E1CC38
E1CC38
E1DC38
E0D838
E0F838
E0F838
E07038
E07038
E07038
ENDCHAR
STARTCHAR 004E
ENCODING 78
SWIDTH 609 0
DWIDTH 22 0
BBX 17 26 3 0
BITMAP
E00380
F00380
F00380
F80380
FC0380
FC0380
EE0380
EE0380
E70380
E70380
E38380
E38380
E1C380
E1E380
E0E380
E0F380
E07380
E03B80
E03B80
E01F80
E01F80
E00F80
E00F80
E00780
E00780
E00380
ENDCHAR
STARTCHAR 004F
ENCODING 79
SWIDTH 609 0
DWIDTH 22 0
BBX 20 26 1 0
BITMAP
01F800
07FE00
0F9F80
1C0380
3801C0
3000E0
7000E0
7000E0
600060
E00070
E00070
E00070
E00070
E00070
E00070
E00070
E00070
600060
7000E0
7000E0
3800C0
3801C0
1C0380
0F9F80
07FE00
01F800
ENDCHAR
STARTCHAR 0050
ENCODING 80
SWIDTH 553 0
DWIDTH 20 0
BBX 16 26 3 0
BITMAP
FFE0
FFF8
E0FC
E01E
E00E
E007
E007
E007
E007
E007
E00E
E01E
E07C
FFF8
FFE0
E000
E000
E000
E000
E000
E000
E000
E000
E000
E000
E000
ENDCHAR
STARTCHAR 0051
ENCODING 81
SWIDTH 609 0
DWIDTH 22 0
BBX 20 26 1 0
BITMAP
01F800
07FE00
0F9F80
1C0380
3801C0
3000E0
7000E0
7000E0
600060
E00070
E00070
E00070
E00070
E00070
E00070
E00070
E00070
6FC060
7FE0E0
7FF8E0
307CE0
381FC0
1C0FC0
0F9FF0
07FFF0
01F8F0
ENDCHAR
STARTCHAR 0052
ENCODING 82
SWIDTH 553 0
DWIDTH 20 0
BBX 16 26 3 0
BITMAP
FFE0
FFF8
E0FC
E01E
E00E
E007
E007
E007
E007
E007
E00E
E00E
E07E
E7FC
E3F0
E1C0
E1C0
E0E0
E070
E070
E038
E03C
E01C
E00E
E00F
E007
ENDCHAR
STARTCHAR 0053
ENCODING 83
SWIDTH 498 0
DWIDTH 18 0
BBX 17 26 1 0
BITMAP
07E000
1FF800
3EFC00
701E00
700E00
E00700
E00700
E00700
F00000
700000
7C0000
3F8000
0FF000
01FC00
003E00
000F00
000780
000380
E00380
E00380
E00380
700700
700F00
3F7E00
1FFC00
07F000
ENDCHAR
STARTCHAR 0054
ENCODING 84
SWIDTH 443 0
DWIDTH 16 0
BBX 15 26 1 0
BITMAP
FFFE
FFFE
FFFE
0380
0380
0380
0380
0380
0380
0380
0380
0380
0380
0380
0380
0380
0380
0380
0380
0380
0380
0380
0380
0380
0380
0380
ENDCHAR
STARTCHAR 0055
ENCODING 85
SWIDTH 553 0
DWIDTH 20 0
BBX 16 26 2 0
BITMAP
E007
E007
E007
E007
E007
E007
E007
E007
E007
E007
E007
E007
E007
E007
E007
E007
E007
E007
E007
E007
E007
700F
780E
3E7E
1FFC
07F0
ENDCHAR
STARTCHAR 0056
ENCODING 86
SWIDTH 498 0
DWIDTH 18 0
BBX 18 26 0 0
BITMAP
E001C0
E001C0
6001C0
700180
700380
300380
380380
380300
380700
180700
1C0600
1C0600
0C0E00
0E0E00
0E0C00
0E0C00
061C00
071C00
071800
033800
03B800
03B800
03B000
01F000
01F000
01E000
ENDCHAR
STARTCHAR 0057
ENCODING 87
SWIDTH 830 0
DWIDTH 30 0
BBX 30 26 0 0
BITMAP
E007801C
6007801C
70078018
7007C038
3007C038
380EC030
380EC030
380EC070
180CE070
1C0CE060
1C1CE060
0C1C60E0
0C1C60E0
0E1870C0
0E1871C0
061871C0
07383180
07383180
07383B80
03303B80
03B03B00
03B01B00
01F01F00
01F01E00
01E01E00
01E01E00
ENDCHAR
STARTCHAR 0058
ENCODING 88
SWIDTH 498 0
DWIDTH 18 0
BBX 18 26 0 0
BITMAP
700780
380700
380F00
1C0E00
1C1E00
0E1C00
0E3C00
073800
077000
03F000
03E000
01E000
01E000
01E000
03F000
03F000
073800
0F3800
0E1C00
1E0E00
1C0E00
3C0700
380700
700380
700380
E001C0
ENDCHAR
STARTCHAR 0059
ENCODING 89
SWIDTH 498 0
DWIDTH 18 0
BBX 17 26 1 0
BITMAP
E00380
E00380
700700
700700
380E00
380E00
1C1C00
1C1C00
0E3800
0E3800
067000
077000
076000
03E000
03C000
01C000
01C000
01C000
01C000
01C000
01C000
01C000
01C000
01C000
01C000
01C000
ENDCHAR
STARTCHAR 005A
ENCODING 90
SWIDTH 443 0
DWIDTH 16 0
BBX 15 26 1 0
BITMAP
FFFE
FFFE
001E
001C
003C
0038
0078
0070
00F0
00E0
01C0
03C0
0380
0780
0700
0F00
0E00
1E00
1C00
3C00
3800
7800
7000
E000
FFFE
FFFE
ENDCHAR
STARTCHAR 005B
ENCODING 91
SWIDTH 387 0
DWIDTH 14 0
BBX 9 33 4 -7
BITMAP
FF80
FF80
E000
E000
E000
E000
E000
E000
E000
E000
E000
E000
E000
E000
E000
E000
E000
E000
E000
E000
E000
E000
E000
E000
E000
E000
E000
E000
E000
E000
E000
FF80
FF80
ENDCHAR
STARTCHAR 005C
ENCODING 92
SWIDTH 276 0
DWIDTH 10 0
BBX 11 26 -1 0
BITMAP
E000
E000
7000
7000
3000
3800
3800
1800
1C00
1C00
0C00
0E00
0E00
0600
0700
0700
0300
0380
0380
0180
01C0
01C0
00C0
00E0
00E0
0060
ENDCHAR
STARTCHAR 005D
ENCODING 93
SWIDTH 387 0
DWIDTH 14 0
BBX 9 33 2 -7
BITMAP
FF80
FF80
0380
0380
0380
0380
0380
0380
0380
0380
0380
0380
0380
0380
0380
0380
0380
0380
0380
0380
0380
0380
0380
0380
0380
0380
0380
0380
0380
0380
0380
FF80
FF80
ENDCHAR
STARTCHAR 005E
ENCODING 94
SWIDTH 609 0
DWIDTH 22 0
BBX 18 16 2 9
BITMAP
01C000
01E000
01E000
03F000
033000
073800
061800
0E1C00
0C0C00
1C0E00
180E00
380700
300700
700380
600380
E001C0
ENDCHAR
STARTCHAR 005F
ENCODING 95
SWIDTH 498 0
DWIDTH 18 0
BBX 18 2 0 -5
BITMAP
FFFFC0
FFFFC0
ENDCHAR
STARTCHAR 0060
ENCODING 96
SWIDTH 221 0
DWIDTH 8 0
BBX 6 5 1 22
BITMAP
C0
60
30
18
0C
ENDCHAR
STARTCHAR 0061
ENCODING 97
SWIDTH 498 0
DWIDTH 18 0
BBX 15 20 1 0
BITMAP
07CE
1FEE
3EFE
383E
701E
700E
600E
E00E
E00E
E00E
E00E
E00E
E00E
600E
700E
701E
381E
3EFE
1FEE
07CE
ENDCHAR
STARTCHAR 0062
ENCODING 98
SWIDTH 498 0
DWIDTH 18 0
BBX 15 26 2 0
BITMAP
E000
E000
E000
E000
E000
E000
E7C0
EFF0
FEF8
F83C
F01C
F00C
E00E
E00E
E00E
E00E
E00E
E00E
E00E
E00E
F00C
F01C
F83C
FEF8
EFF0
E7C0
ENDCHAR
STARTCHAR 0063
ENCODING 99
SWIDTH 443 0
DWIDTH 16 0
BBX 14 20 1 0
BITMAP
07C0
1FF0
3EF8
7838
701C
701C
E01C
E000
E000
E000
E000
E000
E000
E01C
701C
701C
7838
3EF8
1FF0
0FC0
ENDCHAR
STARTCHAR 0064
ENCODING 100
SWIDTH 498 0
DWIDTH 18 0
BBX 15 26 1 0
BITMAP
000E
000E
000E
000E
000E
000E
07CE
1FEE
3EFE
381E
701E
700E
600E
E00E
E00E
E00E
E00E
E00E
E00E
600E
700E
701E
381E
3EFE
1FEE
07CE
ENDCHAR
STARTCHAR 0065
ENCODING 101
SWIDTH 443 0
DWIDTH 16 0
BBX 14 20 1 0
BITMAP
07C0
1FE0
3FF0
3838
7038
601C
E01C
E01C
E01C
FFFC
FFFC
E000
E000
E01C
701C
701C
7838
3EF0
1FE0
07C0
ENDCHAR
STARTCHAR 0066
ENCODING 102
SWIDTH 221 0
DWIDTH 8 0
BBX 9 26 0 0
BITMAP
0F80
1F80
3C00
3800
3800
3800
FF00
FF00
3800
3800
3800
3800
3800
3800
3800
3800
3800
3800
3800
3800
3800
3800
3800
3800
3800
3800
ENDCHAR
STARTCHAR 0067
ENCODING 103
SWIDTH 498 0
DWIDTH 18 0
BBX 15 27 1 -7
BITMAP
07CE
1FEE
3EFE
383E
701E
700E
600E
E00E
E00E
E00E
E00E
E00E
E00E
E00E
700E
701E
383E
3EFE
1FEE
07CE
000E
E00E
E00E
701E
7EFC
3FF8
0FE0
ENDCHAR
STARTCHAR 0068
ENCODING 104
SWIDTH 498 0
DWIDTH 18 0
BBX 14 26 2 0
BITMAP
E000
E000
E000
E000
E000
E000
E7E0
EFF0
FEF8
F03C
F01C
E01C
E01C
E01C
E01C
E01C
E01C
E01C
E01C
E01C
E01C
E01C
E01C
E01C
E01C
E01C
ENDCHAR
STARTCHAR 0069
ENCODING 105
SWIDTH 221 0
DWIDTH 8 0
BBX 3 26 3 1
BITMAP
E0
E0
E0
00
00
00
E0
E0
E0
E0
E0
E0
E0
E0
E0
E0
E0
E0
E0
E0
E0
E0
E0
E0
E0
E0
ENDCHAR
STARTCHAR 006A
ENCODING 106
SWIDTH 221 0
DWIDTH 8 0
BBX 7 34 -2 -7
BITMAP
0E
0E
0E
00
00
00
00
0E
0E
0E
0E
0E
0E
0E
0E
0E
0E
0E
0E
0E
0E
0E
0E
0E
0E
0E
0E
0E
0E
0E
0E
3E
FC
F8
ENDCHAR
STARTCHAR 006B
ENCODING 107
SWIDTH 443 0
DWIDTH 16 0
BBX 14 26 2 0
BITMAP
E000
E000
E000
E000
E000
E000
E038
E070
E0E0
E0C0
E1C0
E380
E300
E700
EF80
FF80
F9C0
F1C0
F0C0
E0E0
E060
E070
E070
E038
E038
E01C
ENDCHAR
STARTCHAR 006C
ENCODING 108
SWIDTH 221 0
DWIDTH 8 0
BBX 3 26 3 0
BITMAP
E0
E0
E0
E0
E0
E0
E0
E0
E0
E0
E0
E0
E0
E0
E0
E0
E0
E0
E0
E0
E0
E0
E0
E0
E0
E0
ENDCHAR
STARTCHAR 006D
ENCODING 109
SWIDTH 775 0
DWIDTH 28 0
BBX 24 20 2 0
BITMAP
E7E0F8
EFF3FE
FEFFBE
F03E0F
F01C07
E01C07
E01C07
E01C07
E01C07
E01C07
E01C07
E01C07
E01C07
E01C07
E01C07
E01C07
E01C07
E01C07
E01C07
E01C07
ENDCHAR
STARTCHAR 006E
ENCODING 110
SWIDTH 498 0
DWIDTH 18 0
BBX 14 20 2 0
BITMAP
E7E0
EFF0
FEF8
F03C
F01C
E01C
E01C
E01C
E01C
E01C
E01C
E01C
E01C
E01C
E01C
E01C
E01C
E01C
E01C
E01C
ENDCHAR
STARTCHAR 006F
ENCODING 111
SWIDTH 498 0
DWIDTH 18 0
BBX 16 20 1 0
BITMAP
07E0
1FF8
3E7C
381E
700E
700E
6007
E007
E007
E007
E007
E007
E007
6007
700E
700E
381E
3E7C
1FF8
07E0
ENDCHAR
STARTCHAR 0070
ENCODING 112
SWIDTH 498 0
DWIDTH 18 0
BBX 15 27 2 -7
BITMAP
E7E0
EFF0
FEF8
F83C
F01C
F00C
E00E
E00E
E00E
E00E
E00E
E00E
E00E
E00E
F00C
F01C
F83C
FEF8
EFF0
E7C0
E000
E000
E000
E000
E000
E000
E000
ENDCHAR
STARTCHAR 0071
ENCODING 113
SWIDTH 498 0
DWIDTH 18 0
BBX 15 27 1 -7
BITMAP
07CE
1FEE
3EFE
381E
701E
700E
600E
E00E
E00E
E00E
E00E
E00E
E00E
600E
700E
701E
381E
3EFE
1FEE
07CE
000E
000E
000E
000E
000E
000E
000E
ENDCHAR
STARTCHAR 0072
ENCODING 114
SWIDTH 276 0
DWIDTH 10 0
BBX 8 20 2 0
BITMAP
E7
EF
FF
F8
F0
E0
E0
E0
E0
E0
E0
E0
E0
E0
E0
E0
E0
E0
E0
E0
ENDCHAR
STARTCHAR 0073
ENCODING 115
SWIDTH 443 0
DWIDTH 16 0
BBX 14 20 1 0
BITMAP
0FC0
1FF0
3CF8
7038
701C
701C
7000
7800
3F00
1FE0
07F8
00F8
003C
001C
E01C
E01C
703C
7CF8
3FF0
0FC0
ENDCHAR
STARTCHAR 0074
ENCODING 116
SWIDTH 221 0
DWIDTH 8 0
BBX 8 26 1 1
BITMAP
38
38
38
38
38
38
FF
FF
38
38
38
38
38
38
38
38
38
38
38
38
38
38
38
38
38
38
ENDCHAR
STARTCHAR 0075
ENCODING 117
SWIDTH 498 0
DWIDTH 18 0
BBX 14 20 2 0
BITMAP
E01C
E01C
E01C
E01C
E01C
E01C
E01C
E01C
E01C
E01C
E01C
E01C
E01C
E01C
E01C
E01C
703C
7DFC
3FDC
1F9C
ENDCHAR
STARTCHAR 0076
ENCODING 118
SWIDTH 443 0
DWIDTH 16 0
BBX 15 20 0 0
BITMAP
E00E
E00E
701C
701C
701C
3018
3838
3838
3830
1870
1C70
1C70
0C60
0EE0
0EE0
0EC0
06C0
07C0
0780
0380
ENDCHAR
STARTCHAR 0077
ENCODING 119
SWIDTH 664 0
DWIDTH 24 0
BBX 24 20 0 0
BITMAP
E03C07
E03C07
603C06
703C0E
703E0E
30360E
30660C
38660C
38661C
186718
1C6318
1CC318
1CC338
0CC330
0EC3B0
0EC1B0
0781E0
0781E0
0781E0
0781E0
ENDCHAR
STARTCHAR 0078
ENCODING 120
SWIDTH 443 0
DWIDTH 16 0
BBX 16 20 0 0
BITMAP
700E
381E
381C
1C38
1E38
0E70
07E0
07E0
03C0
03C0
03C0
07E0
0760
0E70
1C38
1C38
381C
381E
700E
E00F
ENDCHAR
STARTCHAR 0079
ENCODING 121
SWIDTH 443 0
DWIDTH 16 0
BBX 15 27 0 -7
BITMAP
E00E
E00E
600C
701C
701C
3018
3038
3838
1830
1830
1C70
1C60
0C60
0CE0
0EC0
06C0
06C0
0780
0380
0380
0380
0300
0700
0700
0600
0E00
0E00
ENDCHAR
STARTCHAR 007A
ENCODING 122
SWIDTH 443 0
DWIDTH 16 0
BBX 14 20 1 0
BITMAP
7FFC
7FFC
001C
0038
0078
0070
00E0
01E0
01C0
0380
0700
0F00
0E00
1C00
3C00
3800
7000
F000
FFFC
FFFC
ENDCHAR
STARTCHAR 007B
ENCODING 123
SWIDTH 387 0
DWIDTH 14 0
BBX 11 33 2 -7
BITMAP
0FE0
1FE0
3C00
3800
3800
3800
3800
3800
3800
3800
3800
3800
3800
3800
3800
F800
E000
F800
3800
3800
3800
3800
3800
3800
3800
3800
3800
3800
3800
3800
3C00
1FE0
0FE0
ENDCHAR
STARTCHAR 007C
ENCODING 124
SWIDTH 221 0
DWIDTH 8 0
BBX 3 26 3 0
BITMAP
E0
E0
E0
E0
E0
E0
E0
E0
E0
E0
E0
E0
E0
E0
E0
E0
E0
E0
E0
E0
E0
E0
E0
E0
E0
E0
ENDCHAR
STARTCHAR 007D
ENCODING 125
SWIDTH 387 0
DWIDTH 14 0
BBX 11 33 2 -7
BITMAP
FE00
FF00
0780
0380
0380
0380
0380
0380
0380
0380
0380
0380
0380
0380
0380
03E0
00E0
03E0
0380
0380
0380
0380
0380
0380
0380
0380
0380
0380
0380
0380
0780
FF00
FE00
ENDCHAR
STARTCHAR 007E
ENCODING 126
SWIDTH 609 0
DWIDTH 22 0
BBX 16 5 2 7
BITMAP
1E01
7F83
FFF7
C1FF
403C
ENDCHAR
STARTCHAR 00A0
ENCODING 160
SWIDTH 276 0
DWIDTH 10 0
BBX 0 0 0 0
BITMAP
ENDCHAR
STARTCHAR 00A1
ENCODING 161
SWIDTH 221 0
DWIDTH 8 0
BBX 3 26 3 -7
BITMAP
E0
E0
E0
E0
00
00
00
E0
E0
E0
E0
E0
E0
E0
E0
E0
E0
E0
E0
E0
E0
E0
E0
E0
E0
E0
ENDCHAR
STARTCHAR 00A2
ENCODING 162
SWIDTH 553 0
DWIDTH 20 0
BBX 14 26 3 0
BITMAP
0300
0300
0300
0780
1FE0
3FF0
7838
7038
601C
E01C
E000
E000
E000
E000
E000
E000
E01C
701C
703C
7838
3FF8
3FF0
0FC0
0300
0300
0300
ENDCHAR
STARTCHAR 00A3
ENCODING 163
SWIDTH 553 0
DWIDTH 20 0
BBX 18 26 1 0
BITMAP
03F000
0FFC00
1FFE00
3C0F00
380700
700380
700380
700000
700000
700000
700000
380000
FFFC00
FFFC00
0E0000
070000
070000
0381C0
0381C0
0381C0
0381C0
0383C0
038780
7FFF80
7FFE00
7FF800
ENDCHAR
STARTCHAR 00A4
ENCODING 164
SWIDTH 553 0
DWIDTH 20 0
BBX 18 19 1 4
BITMAP
41E080
E7FDC0
7FFF80
3E1F00
380780
700380
7003C0
E001C0
E001C0
E001C0
E001C0
E001C0
700180
700380
380700
3E1F00
7FFF80
E7F9C0
41E080
ENDCHAR
STARTCHAR 00A5
ENCODING 165
SWIDTH 553 0
DWIDTH 20 0
BBX 17 26 2 0
BITMAP
E00380
F00700
700700
700E00
380E00
381C00
1C1C00
1C1800
0E3800
7E3F00
7F7F00
076000
03E000
03E000
01C000
7FFF00
7FFF00
01C000
01C000
01C000
01C000
01C000
01C000
01C000
01C000
01C000
ENDCHAR
STARTCHAR 00A6
ENCODING 166
SWIDTH 221 0
DWIDTH 8 0
BBX 3 26 3 0
BITMAP
E0
E0
E0
E0
E0
E0
E0
E0
E0
E0
00
00
00
00
00
00
E0
E0
E0
E0
E0
E0
E0
E0
E0
E0
ENDCHAR
STARTCHAR 00A7
ENCODING 167
SWIDTH 443 0
DWIDTH 16 0
BBX 14 29 1 -3
BITMAP
0780
1FE0
3C70
3820
3800
1C00
0E00
1F00
7F80
73C0
E0E0
E0F0
E078
7038
781C
3C1C
1E1C
0F1C
07F8
03F0
01C0
00E0
00F0
0070
0070
3070
38F0
1FE0
0780
ENDCHAR
STARTCHAR 00A8
ENCODING 168
SWIDTH 221 0
DWIDTH 8 0
BBX 8 4 0 23
BITMAP
E3
E3
E3
E3
ENDCHAR
STARTCHAR 00A9
ENCODING 169
SWIDTH 803 0
DWIDTH 29 0
BBX 27 26 1 0
BITMAP
003F8000
01FFF000
03E0FC00
0F001E00
1E000F00
3C3F8780
387FE380
70F0E1C0
71C071C0
E1C030E0
E38000E0
E38000E0
E38000E0
E38000E0
E38000E0
E38030E0
71C030E0
71E071C0
70F0E1C0
387FC380
3C1F8780
1E000F00
0F801E00
03E0F800
01FFF000
003F8000
ENDCHAR
STARTCHAR 00AA
ENCODING 170
SWIDTH 304 0
DWIDTH 11 0
BBX 10 11 0 15
BITMAP
1EC0
7FC0
71C0
E1C0
E1C0
E0C0
E1C0
E1C0
71C0
7FC0
1EC0
ENDCHAR
STARTCHAR 00AB
ENCODING 171
SWIDTH 443 0
DWIDTH 16 0
BBX 13 13 2 3
BITMAP
0E38
1C70
1860
38E0
71C0
6180
E300
6180
71C0
38E0
1860
1C70
0E38
ENDCHAR
STARTCHAR 00AC
ENCODING 172
SWIDTH 609 0
DWIDTH 22 0
BBX 19 10 1 4
BITMAP
FFFFE0
FFFFE0
FFFFE0
0000E0
0000E0
0000E0
0000E0
0000E0
0000E0
0000E0
ENDCHAR
STARTCHAR 00AD
ENCODING 173
SWIDTH 332 0
DWIDTH 12 0
BBX 9 2 2 8
BITMAP
FF80
FF80
ENDCHAR
STARTCHAR 00AE
ENCODING 174
SWIDTH 803 0
DWIDTH 29 0
BBX 27 26 1 0
BITMAP
003F8000
01FFF000
03E0FC00
0F001E00
1E000F00
3CFFC780
38FFE380
70E0F1C0
70E071C0
60E070E0
E0E070E0
E0E0F0E0
E0FFE0E0
E0FF80E0
E0E300E0
E0E380E0
60E1C0E0
70E1C1C0
70E0E1C0
38E07380
3C000780
1E000F00
0F801E00
07E0F800
01FFF000
003F8000
ENDCHAR
STARTCHAR 00AF
ENCODING 175
SWIDTH 221 0
DWIDTH 8 0
BBX 11 2 -1 23
BITMAP
FFE0
FFE0
ENDCHAR
STARTCHAR 00B0
ENCODING 176
SWIDTH 387 0
DWIDTH 14 0
BBX 10 10 2 16
BITMAP
1E00
7F80
6180
C0C0
C0C0
C0C0
E0C0
6180
3F00
1E00
ENDCHAR
STARTCHAR 00B1
ENCODING 177
SWIDTH 609 0
DWIDTH 22 0
BBX 19 19 1 0
BITMAP
00E000
00E000
00E000
00E000
00E000
00E000
FFFFE0
FFFFE0
FFFFE0
00E000
00E000
00E000
00E000
00E000
00E000
000000
FFFFE0
FFFFE0
FFFFE0
ENDCHAR
STARTCHAR 00B2
ENCODING 178
SWIDTH 332 0
DWIDTH 12 0
BBX 11 15 1 11
BITMAP
1F00
7FC0
71E0
E0E0
E0E0
00E0
01C0
03C0
0780
0E00
1C00
3800
7000
FFC0
FFC0
ENDCHAR
STARTCHAR 00B3
ENCODING 179
SWIDTH 332 0
DWIDTH 12 0
BBX 12 15 0 11
BITMAP
0F80
3FC0
78E0
70E0
00E0
01E0
07C0
07C0
01E0
0070
0070
E070
70E0
7FE0
1F80
ENDCHAR
STARTCHAR 00B4
ENCODING 180
SWIDTH 221 0
DWIDTH 8 0
BBX 6 5 3 22
BITMAP
1C
38
70
E0
C0
ENDCHAR
STARTCHAR 00B5
ENCODING 181
SWIDTH 498 0
DWIDTH 18 0
BBX 14 27 2 -7
BITMAP
E01C
E01C
E01C
E01C
E01C
E01C
E01C
E01C
E01C
E01C
E01C
E01C
E01C
E01C
E01C
E01C
F03C
FDFC
FFDC
FF9C
E000
E000
E000
E000
E000
E000
E000
ENDCHAR
STARTCHAR 00B6
ENCODING 182
SWIDTH 609 0
DWIDTH 22 0
BBX 17 30 2 -4
BITMAP
07FF80
3FFF80
7FC380
FFC380
FFC380
FFC380
FFC380
FFC380
FFC380
FFC380
7FC380
7FC380
1FC380
07C380
01C380
01C380
01C380
01C380
01C380
01C380
01C380
01C380
01C380
01C380
01C380
01C380
01C380
01C380
01C380
01C380
ENDCHAR
STARTCHAR 00B7
ENCODING 183
SWIDTH 276 0
DWIDTH 10 0
BBX 4 4 3 7
BITMAP
60
F0
F0
60
ENDCHAR
STARTCHAR 00B8
ENCODING 184
SWIDTH 221 0
DWIDTH 8 0
BBX 8 7 0 -6
BITMAP
18
10
3E
07
07
FF
7C
ENDCHAR
STARTCHAR 00B9
ENCODING 185
SWIDTH 332 0
DWIDTH 12 0
BBX 5 15 3 11
BITMAP
F8
F8
38
38
38
38
38
38
38
38
38
38
38
38
38
ENDCHAR
STARTCHAR 00BA
ENCODING 186
SWIDTH 304 0
DWIDTH 11 0
BBX 11 11 0 15
BITMAP
1F00
3FC0
71C0
E0E0
E0E0
E0E0
E0E0
E0E0
71C0
3FC0
1F00
ENDCHAR
STARTCHAR 00BB
ENCODING 187
SWIDTH 443 0
DWIDTH 16 0
BBX 13 13 2 3
BITMAP
E380
71C0
30C0
38E0
1C70
0C30
0638
0C30
1C70
38E0
30C0
71C0
E380
ENDCHAR
STARTCHAR 00BC
ENCODING 188
SWIDTH 830 0
DWIDTH 30 0
BBX 25 26 4 0
BITMAP
F800E000
F800E000
3801C000
3801C000
38038000
38038000
38070000
38070000
380E0000
380E1E00
381C1E00
381C3E00
38383E00
38387E00
38706E00
0070EE00
00E0CE00
00E1CE00
01C18E00
01C38E00
03830E00
0387FF80
0707FF80
07000E00
0E000E00
0E000E00
ENDCHAR
STARTCHAR 00BD
ENCODING 189
SWIDTH 830 0
DWIDTH 30 0
BBX 25 26 4 0
BITMAP
F801C000
F8018000
38038000
38030000
38070000
38070000
380E0000
380E0000
381C0000
381C0000
38387C00
3839FF00
3871C780
38738380
38E38380
00E00380
01C00700
01C00700
03800E00
03801C00
07003800
0F007000
0E01E000
1E03C000
1C03FF00
3C03FF00
ENDCHAR
STARTCHAR 00BE
ENCODING 190
SWIDTH 830 0
DWIDTH 30 0
BBX 28 26 1 0
BITMAP
0F800E00
3FC00E00
78E01C00
70E01C00
00E03800
01E03800
07C07000
07C07000
00E0E000
0070E3C0
E071C3C0
E071C7C0
70E387C0
7FE38FC0
1F870DC0
00061DC0
000E19C0
001C39C0
001C31C0
003871C0
003861C0
0070FFF0
0070FFF0
00E001C0
00E001C0
01C001C0
ENDCHAR
STARTCHAR 00BF
ENCODING 191
SWIDTH 443 0
DWIDTH 16 0
BBX 14 27 1 -7
BITMAP
0380
0380
0380
0380
0000
0000
0000
0380
0380
0380
0380
0380
0780
0F00
1E00
3C00
7000
7000
E01C
E01C
E01C
E01C
601C
7038
7878
3FF0
0FC0
ENDCHAR
STARTCHAR 00C0
ENCODING 192
SWIDTH 498 0
DWIDTH 18 0
BBX 18 33 0 0
BITMAP
070000
030000
018000
00C000
006000
000000
000000
01E000
01E000
03E000
037000
037000
033000
073000
063800
063800
0E1800
0E1C00
0C1C00
0C1C00
1C0C00
1C0E00
180E00
1FFE00
3FFF00
380700
300700
700300
700380
600380
600180
E001C0
E001C0
ENDCHAR
STARTCHAR 00C1
ENCODING 193
SWIDTH 498 0
DWIDTH 18 0
BBX 18 33 0 0
BITMAP
001800
003000
006000
00C000
018000
000000
000000
01E000
01F000
01F000
03F000
03B000
033800
073800
071800
061800
061C00
0E1C00
0E0C00
0C0C00
1C0E00
1C0E00
180600
1FFF00
3FFF00
380300
300300
300380
700380
600180
600180
E001C0
E001C0
ENDCHAR
STARTCHAR 00C2
ENCODING 194
SWIDTH 498 0
DWIDTH 18 0
BBX 18 33 0 0
BITMAP
00E000
01F000
033800
061C00
0E0E00
000000
000000
01E000
01F000
01F000
03B000
03B000
033800
073800
071800
061800
061C00
0E1C00
0E0C00
0C0E00
1C0E00
1C0600
180600
1FFF00
3FFF00
380300
300300
300380
700180
700180
600180
E001C0
E000C0
ENDCHAR
STARTCHAR 00C3
ENCODING 195
SWIDTH 498 0
DWIDTH 18 0
BBX 18 32 0 0
BITMAP
030600
0FC400
08FC00
183800
000000
000000
01E000
01E000
03E000
03F000
037000
033000
073800
073800
061800
061800
0E1C00
0C1C00
0C0C00
1C0E00
1C0E00
180E00
1FFE00
3FFF00
380700
300300
300300
700380
600380
600180
E001C0
E001C0
ENDCHAR
STARTCHAR 00C4
ENCODING 196
SWIDTH 498 0
DWIDTH 18 0
BBX 18 32 0 0
BITMAP
071800
071800
071800
071800
000000
000000
01E000
01E000
01F000
01B000
03B000
033800
033800
071800
061800
061C00
0E1C00
0E1C00
0C0C00
0C0E00
1C0E00
180E00
1FFE00
3FFF00
300700
300300
300380
700380
600380
600180
E001C0
E001C0
ENDCHAR
STARTCHAR 00C5
ENCODING 197
SWIDTH 498 0
DWIDTH 18 0
BBX 18 35 0 1
BITMAP
01E000
023000
041000
041000
041000
023000
01E000
000000
000000
03E000
03E000
036000
036000
077000
077000
063000
063800
0E3800
0E3800
0E1800
0C1C00
1C1C00
1C1C00
1C0E00
180E00
3FFE00
3FFF00
300700
300700
700700
700380
600380
600380
E001C0
E001C0
ENDCHAR
STARTCHAR 00C6
ENCODING 198
SWIDTH 830 0
DWIDTH 30 0
BBX 28 26 0 0
BITMAP
0003FFF0
0007FFF0
000FC000
000DC000
001DC000
0019C000
0039C000
0031C000
0071C000
0061C000
00E1C000
00C1FFF0
01C1FFF0
0181C000
0381C000
0301C000
07FFC000
0FFFC000
0E01C000
1C01C000
1C01C000
3801C000
3801C000
7001C000
7001FFF0
E001FFF0
ENDCHAR
STARTCHAR 00C7
ENCODING 199
SWIDTH 553 0
DWIDTH 20 0
BBX 18 33 1 -7
BITMAP
03F000
0FFC00
1F3E00
1C0F00
380780
700380
7001C0
7001C0
6001C0
E001C0
E00000
E00000
E00000
E00000
E00000
E00000
E00000
6001C0
7001C0
7001C0
780180
380380
3C0700
1F3F00
0FFC00
03F000
00C000
008000
01F000
003800
003800
07F800
03E000
ENDCHAR
STARTCHAR 00C8
ENCODING 200
SWIDTH 498 0
DWIDTH 18 0
BBX 13 33 3 0
BITMAP
3800
1C00
0E00
0300
0180
0000
0000
FFF8
FFF8
E000
E000
E000
E000
E000
E000
E000
E000
E000
FFF8
FFF8
E000
E000
E000
E000
E000
E000
E000
E000
E000
E000
E000
FFF8
FFF8
ENDCHAR
STARTCHAR 00C9
ENCODING 201
SWIDTH 498 0
DWIDTH 18 0
BBX 13 33 3 0
BITMAP
00E0
0180
0380
0700
0600
0000
0000
FFF8
FFF8
E000
E000
E000
E000
E000
E000
E000
E000
E000
FFF8
FFF8
E000
E000
E000
E000
E000
E000
E000
E000
E000
E000
E000
FFF8
FFF8
ENDCHAR
STARTCHAR 00CA
ENCODING 202
SWIDTH 498 0
DWIDTH 18 0
BBX 13 33 3 0
BITMAP
0700
0D80
1CC0
38E0
7070
0000
0000
FFF8
FFF8
E000
E000
E000
E000
E000
E000
E000
E000
E000
FFF8
FFF8
E000
E000
E000
E000
E000
E000
E000
E000
E000
E000
E000
FFF8
FFF8
ENDCHAR
STARTCHAR 00CB
ENCODING 203
SWIDTH 498 0
DWIDTH 18 0
BBX 13 32 3 0
BITMAP
38C0
38C0
38C0
38C0
0000
0000
FFF8
FFF8
E000
E000
E000
E000
E000
E000
E000
E000
E000
FFF8
FFF8
E000
E000
E000
E000
E000
E000
E000
E000
E000
E000
E000
FFF8
FFF8
ENDCHAR
STARTCHAR 00CC
ENCODING 204
SWIDTH 221 0
DWIDTH 8 0
BBX 6 33 1 0
BITMAP
C0
60
30
18
0C
00
00
38
38
38
38
38
38
38
38
38
38
38
38
38
38
38
38
38
38
38
38
38
38
38
38
38
38
ENDCHAR
STARTCHAR 00CD
ENCODING 205
SWIDTH 221 0
DWIDTH 8 0
BBX 6 33 3 0
BITMAP
1C
30
60
C0
80
00
00
E0
E0
E0
E0
E0
E0
E0
E0
E0
E0
E0
E0
E0
E0
E0
E0
E0
E0
E0
E0
E0
E0
E0
E0
E0
E0
ENDCHAR
STARTCHAR 00CE
ENCODING 206
SWIDTH 221 0
DWIDTH 8 0
BBX 11 33 -1 0
BITMAP
0E00
1B00
3980
71C0
E0E0
0000
0000
0E00
0E00
0E00
0E00
0E00
0E00
0E00
0E00
0E00
0E00
0E00
0E00
0E00
0E00
0E00
0E00
0E00
0E00
0E00
0E00
0E00
0E00
0E00
0E00
0E00
0E00
ENDCHAR
STARTCHAR 00CF
ENCODING 207
SWIDTH 221 0
DWIDTH 8 0
BBX 8 32 0 0
BITMAP
E3
E3
E3
E3
00
00
1C
1C
1C
1C
1C
1C
1C
1C
1C
1C
1C
1C
1C
1C
1C
1C
1C
1C
1C
1C
1C
1C
1C
1C
1C
1C
ENDCHAR
STARTCHAR 00D0
ENCODING 208
SWIDTH 609 0
DWIDTH 22 0
BBX 21 26 0 0
BITMAP
1FFC00
1FFF00
1C0FC0
1C01C0
1C00E0
1C00F0
1C0070
1C0070
1C0038
1C0038
1C0038
FFF838
FFF838
1C0038
1C0038
1C0038
1C0038
1C0030
1C0070
1C0070
1C00E0
1C00E0
1C01C0
1C0F80
1FFF00
1FFC00
ENDCHAR
STARTCHAR 00D1
ENCODING 209
SWIDTH 609 0
DWIDTH 22 0
BBX 17 32 3 0
BITMAP
070400
0FCC00
19F800
107000
000000
000000
E00380
F00380
F00380
F80380
FC0380
FC0380
EE0380
EE0380
E70380
E70380
E38380
E3C380
E1C380
E1E380
E0E380
E0F380
E07380
E07B80
E03B80
E01F80
E01F80
E00F80
E00F80
E00780
E00780
E00380
ENDCHAR
STARTCHAR 00D2
ENCODING 210
SWIDTH 609 0
DWIDTH 22 0
BBX 20 33 1 0
BITMAP
038000
01C000
00E000
007000
003800
000000
000000
01FC00
07FF00
0F9F80
1C03C0
3801C0
3000E0
7000E0
7000E0
600070
E00070
E00070
E00070
E00070
E00070
E00070
E00070
E00070
600060
7000E0
7000E0
3800E0
3801C0
1E0380
0FDF80
07FE00
01FC00
ENDCHAR
STARTCHAR 00D3
ENCODING 211
SWIDTH 609 0
DWIDTH 22 0
BBX 20 33 1 0
BITMAP
000C00
001800
003000
006000
00C000
000000
000000
01F800
07FE00
0F9F80
1C0380
3801C0
3000E0
7000E0
7000E0
600060
E00070
E00070
E00070
E00070
E00070
E00070
E00070
E00070
600060
7000E0
7000E0
3800E0
3801C0
1C0380
0F9F80
07FE00
01F800
ENDCHAR
STARTCHAR 00D4
ENCODING 212
SWIDTH 609 0
DWIDTH 22 0
BBX 20 33 1 0
BITMAP
007000
00D800
01DC00
038E00
070700
000000
000000
01FC00
07FF00
0F9F80
1C0380
3801C0
3000E0
7000E0
7000E0
600060
E00070
E00070
E00070
E00070
E00070
E00070
E00070
E00070
600060
7000E0
7000E0
3800E0
3801C0
1E0380
0FDF80
07FE00
01F800
ENDCHAR
STARTCHAR 00D5
ENCODING 213
SWIDTH 609 0
DWIDTH 22 0
BBX 20 32 1 0
BITMAP
038200
07E600
04FC00
0C3800
000000
000000
01F800
07FE00
1F9F00
1C0380
3801C0
7000C0
7000E0
7000E0
600060
E00070
E00070
E00070
E00070
E00070
E00070
E00070
E00070
600060
7000E0
7000E0
7001C0
3801C0
1C0380
1F9F00
0FFE00
03F800
ENDCHAR
STARTCHAR 00D6
ENCODING 214
SWIDTH 609 0
DWIDTH 22 0
BBX 20 32 1 0
BITMAP
038C00
038C00
038C00
038C00
000000
000000
01FC00
07FF00
0F9F80
1C0380
3801C0
3000E0
7000E0
7000E0
600060
E00070
E00070
E00070
E00070
E00070
E00070
E00070
E00070
600060
7000E0
7000E0
3800E0
3801C0
1C0380
0FDF80
07FE00
01F800
ENDCHAR
STARTCHAR 00D7
ENCODING 215
SWIDTH 609 0
DWIDTH 22 0
BBX 18 18 2 1
BITMAP
600180
F003C0
780780
3C0F00
1E1E00
0F3C00
07F800
03F000
01E000
01F000
03F000
073800
0E1C00
1C0E00
380700
700380
E001C0
400080
ENDCHAR
STARTCHAR 00D8
ENCODING 216
SWIDTH 609 0
DWIDTH 22 0
BBX 20 28 1 -1
BITMAP
000070
01F860
07FEE0
0F9FC0
1C0380
3803C0
3007E0
7006E0
700EE0
601C60
E01870
E03870
E07070
E06070
E0E070
E1C070
E18070
E38070
670060
7600E0
7E00E0
7C00C0
3801C0
3C0380
7F9F80
67FE00
E1F800
C00000
ENDCHAR
STARTCHAR 00D9
ENCODING 217
SWIDTH 553 0
DWIDTH 20 0
BBX 16 33 2 0
BITMAP
0E00
0700
0380
01C0
00E0
0000
0000
E007
E007
E007
E007
E007
E007
E007
E007
E007
E007
E007
E007
E007
E007
E007
E007
E007
E007
E007
E007
E007
7007
780E
3F7E
1FFC
07F0
ENDCHAR
STARTCHAR 00DA
ENCODING 218
SWIDTH 553 0
DWIDTH 20 0
BBX 16 33 2 0
BITMAP
0038
0060
00C0
0180
0300
0000
0000
E007
E007
E007
E007
E007
E007
E007
E007
E007
E007
E007
E007
E007
E007
E007
E007
E007
E007
E007
E007
E007
700F
780E
3F7E
1FFC
07F0
ENDCHAR
STARTCHAR 00DB
ENCODING 219
SWIDTH 553 0
DWIDTH 20 0
BBX 17 33 2 0
BITMAP
01C000
036000
067000
0E3800
1C1C00
000000
000000
E00380
E00380
E00380
E00380
E00380
E00380
E00380
E00380
E00380
E00380
E00380
E00380
E00380
E00380
E00380
E00380
E00380
E00380
E00380
E00380
E00380
700700
780F00
3F7E00
1FFC00
07F000
ENDCHAR
STARTCHAR 00DC
ENCODING 220
SWIDTH 553 0
DWIDTH 20 0
BBX 16 32 2 0
BITMAP
0E30
0E30
0E30
0E30
0000
0000
E007
E007
E007
E007
E007
E007
E007
E007
E007
E007
E007
E007
E007
E007
E007
E007
E007
E007
E007
E007
E007
7007
780E
3F7E
1FFC
07F0
ENDCHAR
STARTCHAR 00DD
ENCODING 221
SWIDTH 498 0
DWIDTH 18 0
BBX 17 33 1 0
BITMAP
003800
006000
00C000
018000
030000
000000
000000
E00380
F00380
700700
700700
380E00
380E00
1C1C00
1C1C00
0E1800
0E3800
073000
077000
037000
03E000
01E000
01C000
01C000
01C000
01C000
01C000
01C000
01C000
01C000
01C000
01C000
01C000
ENDCHAR
STARTCHAR 00DE
ENCODING 222
SWIDTH 553 0
DWIDTH 20 0
BBX 16 26 3 0
BITMAP
E000
E000
E000
E000
E000
FFF0
FFF8
E03C
E00E
E00E
E007
E007
E007
E007
E007
E00E
E00E
E03C
FFF8
FFF0
E000
E000
E000
E000
E000
E000
ENDCHAR
STARTCHAR 00DF
ENCODING 223
SWIDTH 553 0
DWIDTH 20 0
BBX 17 26 2 0
BITMAP
07E000
1FF800
3EFC00
701C00
700E00
E00E00
E00E00
E00E00
E00E00
E00E00
E01C00
E07800
E3E000
E3FC00
E01E00
E00700
E00380
E00380
E00380
F80380
F80380
F80780
FC0F00
EFFE00
E7FC00
E3F000
ENDCHAR
STARTCHAR 00E0
ENCODING 224
SWIDTH 498 0
DWIDTH 18 0
BBX 15 27 1 0
BITMAP
0C00
0600
0300
0180
00C0
0000
0000
07CE
1FEE
3EFE
381E
701E
700E
600E
E00E
E00E
E00E
E00E
E00E
E00E
600E
700E
701E
381E
3EFE
1FEE
07CE
ENDCHAR
STARTCHAR 00E1
ENCODING 225
SWIDTH 498 0
DWIDTH 18 0
BBX 15 27 1 0
BITMAP
0070
00E0
01C0
0180
0300
0000
0000
07CE
1FEE
3EFE
383E
701E
700E
600E
E00E
E00E
E00E
E00E
E00E
E00E
E00E
700E
701E
381E
3EFE
1FEE
07CE
ENDCHAR
STARTCHAR 00E2
ENCODING 226
SWIDTH 498 0
DWIDTH 18 0
BBX 15 27 1 0
BITMAP
0380
07C0
0E60
1C70
3838
0000
0000
07CE
1FEE
3EFE
383E
701E
700E
600E
E00E
E00E
E00E
E00E
E00E
E00E
600E
700E
701E
381E
3EFE
1FEE
07CE
ENDCHAR
STARTCHAR 00E3
ENCODING 227
SWIDTH 498 0
DWIDTH 18 0
BBX 15 26 1 0
BITMAP
0E08
1F98
31F0
3060
0000
0000
07CE
1FEE
3EFE
383E
701E
700E
600E
E00E
E00E
E00E
E00E
E00E
E00E
600E
700E
701E
381E
3EFE
1FEE
07CE
ENDCHAR
STARTCHAR 00E4
ENCODING 228
SWIDTH 498 0
DWIDTH 18 0
BBX 15 27 1 0
BITMAP
0E30
0E30
0E30
0E30
0000
0000
0000
07CE
0FEE
3F7E
381E
701E
700E
600E
E00E
E00E
E00E
E00E
E00E
E00E
600E
700E
701E
381E
3F7E
1FEE
07CE
ENDCHAR
STARTCHAR 00E5
ENCODING 229
SWIDTH 498 0
DWIDTH 18 0
BBX 15 30 1 0
BITMAP
0380
0440
0820
0820
0820
0820
0440
0380
0000
0000
07CE
1FEE
3EFE
383E
701E
700E
600E
E00E
E00E
E00E
E00E
E00E
E00E
E00E
700E
701E
783E
3EFE
1FEE
0FCE
ENDCHAR
STARTCHAR 00E6
ENCODING 230
SWIDTH 775 0
DWIDTH 28 0
BBX 27 20 1 0
BITMAP
07CE3C00
1FEEFF00
3EFFEF80
783F83C0
701F01C0
600F00C0
E00E00E0
E00E00E0
E00E00E0
E00FFFE0
E00FFFE0
E00E0000
E00E0000
E00E00E0
700F00E0
701F01C0
781F81C0
3EFFEF80
1FEEFF00
07CE7C00
ENDCHAR
STARTCHAR 00E7
ENCODING 231
SWIDTH 443 0
DWIDTH 16 0
BBX 14 27 1 -7
BITMAP
07C0
1FF0
3EF8
7838
701C
701C
E01C
E000
E000
E000
E000
E000
E000
E01C
701C
701C
7838
3EF8
1FF0
0FC0
0300
0200
07C0
00E0
00E0
0FE0
0F80
ENDCHAR
STARTCHAR 00E8
ENCODING 232
SWIDTH 443 0
DWIDTH 16 0
BBX 14 27 1 0
BITMAP
1C00
0E00
0700
0380
01C0
0000
0000
07C0
1FF0
3EF0
3838
7038
701C
E01C
E01C
E01C
FFFC
FFFC
E000
E000
E01C
701C
701C
3838
3EF0
1FF0
07C0
ENDCHAR
STARTCHAR 00E9
ENCODING 233
SWIDTH 443 0
DWIDTH 16 0
BBX 15 27 1 0
BITMAP
0070
00C0
0180
0300
0600
0000
0000
07C0
1FF0
3EF8
383C
701C
700C
E00E
E00E
E00E
FFFE
FFFE
E000
E000
E00E
700E
701C
381C
3EF8
1FF0
07C0
ENDCHAR
STARTCHAR 00EA
ENCODING 234
SWIDTH 443 0
DWIDTH 16 0
BBX 15 27 1 0
BITMAP
0380
06C0
0CE0
1C70
3838
0000
0000
07C0
1FF0
3EF8
383C
701C
700C
E00E
E00E
E00E
FFFE
FFFE
E000
E000
E00E
700E
701C
381C
3EF8
1FF0
07C0
ENDCHAR
STARTCHAR 00EB
ENCODING 235
SWIDTH 443 0
DWIDTH 16 0
BBX 14 27 1 0
BITMAP
1C60
1C60
1C60
1C60
0000
0000
0000
07C0
1FF0
3EF0
3838
7038
701C
E01C
E01C
E01C
FFFC
FFFC
E000
E000
E01C
701C
701C
3838
3EF0
1FF0
07C0
ENDCHAR
STARTCHAR 00EC
ENCODING 236
SWIDTH 221 0
DWIDTH 8 0
BBX 7 27 0 0
BITMAP
E0
70
38
0C
06
00
00
1C
1C
1C
1C
1C
1C
1C
1C
1C
1C
1C
1C
1C
1C
1C
1C
1C
1C
1C
1C
ENDCHAR
STARTCHAR 00ED
ENCODING 237
SWIDTH 221 0
DWIDTH 8 0
BBX 7 27 2 0
BITMAP
0E
18
30
60
C0
00
00
70
70
70
70
70
70
70
70
70
70
70
70
70
70
70
70
70
70
70
70
ENDCHAR
STARTCHAR 00EE
ENCODING 238
SWIDTH 221 0
DWIDTH 8 0
BBX 11 27 -1 0
BITMAP
0E00
1B00
3980
71C0
E0E0
0000
0000
0E00
0E00
0E00
0E00
0E00
0E00
0E00
0E00
0E00
0E00
0E00
0E00
0E00
0E00
0E00
0E00
0E00
0E00
0E00
0E00
ENDCHAR
STARTCHAR 00EF
ENCODING 239
SWIDTH 221 0
DWIDTH 8 0
BBX 8 27 0 0
BITMAP
E3
E3
E3
E3
00
00
00
1C
1C
1C
1C
1C
1C
1C
1C
1C
1C
1C
1C
1C
1C
1C
1C
1C
1C
1C
1C
ENDCHAR
STARTCHAR 00F0
ENCODING 240
SWIDTH 498 0
DWIDTH 18 0
BBX 16 26 1 0
BITMAP
0C0C
0F1C
03F8
01E0
03E0
0F70
0C38
001C
001C
0FFE
1FFE
3C3E
780F
700F
6007
E007
E007
E007
E007
E007
7006
700E
781E
3E7C
1FF8
07E0
ENDCHAR
STARTCHAR 00F1
ENCODING 241
SWIDTH 498 0
DWIDTH 18 0
BBX 14 26 2 0
BITMAP
1C10
3F10
33E0
60C0
0000
0000
E7E0
EFF0
FEF8
F03C
F01C
E01C
E01C
E01C
E01C
E01C
E01C
E01C
E01C
E01C
E01C
E01C
E01C
E01C
E01C
E01C
ENDCHAR
STARTCHAR 00F2
ENCODING 242
SWIDTH 498 0
DWIDTH 18 0
BBX 16 27 1 0
BITMAP
0E00
0700
0380
01C0
00E0
0000
0000
07E0
0FF8
1E7C
381E
700E
700E
6007
E007
E007
E007
E007
E007
E007
7007
700E
700E
381E
3F7C
1FF8
07E0
ENDCHAR
STARTCHAR 00F3
ENCODING 243
SWIDTH 498 0
DWIDTH 18 0
BBX 16 27 1 0
BITMAP
0038
0060
00C0
0180
0300
0000
0000
07E0
0FF8
3E7C
381E
700E
700E
6007
E007
E007
E007
E007
E007
E007
7007
700E
700E
381E
3F7C
1FF8
07E0
ENDCHAR
STARTCHAR 00F4
ENCODING 244
SWIDTH 498 0
DWIDTH 18 0
BBX 17 27 1 0
BITMAP
01C000
036000
067000
0E3800
1C1C00
000000
000000
07F000
0FFC00
3F7E00
380E00
700700
700700
700380
E00380
E00380
E00380
E00380
E00380
E00380
700300
700700
700700
380E00
3F7E00
1FF800
07F000
ENDCHAR
STARTCHAR 00F5
ENCODING 245
SWIDTH 498 0
DWIDTH 18 0
BBX 16 26 1 0
BITMAP
0E08
1F88
19F0
3060
0000
0000
07E0
1FF8
3E7C
381C
700E
700E
6007
E007
E007
E007
E007
E007
E007
6007
700E
700E
381C
3E7C
1FF8
07E0
ENDCHAR
STARTCHAR 00F6
ENCODING 246
SWIDTH 498 0
DWIDTH 18 0
BBX 16 27 1 0
BITMAP
0E30
0E30
0E30
0E30
0000
0000
0000
07E0
0FF8
3E7C
381E
700E
700E
6007
E007
E007
E007
E007
E007
E007
7007
700E
700E
381E
3F7C
1FF8
07E0
ENDCHAR
STARTCHAR 00F7
ENCODING 247
SWIDTH 609 0
DWIDTH 22 0
BBX 19 21 1 -1
BITMAP
00E000
01F000
01F000
01F000
00E000
000000
000000
000000
000000
FFFFE0
FFFFE0
FFFFE0
000000
000000
000000
000000
00E000
01F000
01F000
01F000
00E000
ENDCHAR
STARTCHAR 00F8
ENCODING 248
SWIDTH 498 0
DWIDTH 18 0
BBX 16 24 1 -2
BITMAP
0007
000E
07EC
1FFC
3E7C
383C
703E
707E
6067
E0C7
E1C7
E187
E387
E307
E707
7607
7E0E
7C0E
381E
3F7C
3FF8
77E0
6000
E000
ENDCHAR
STARTCHAR 00F9
ENCODING 249
SWIDTH 498 0
DWIDTH 18 0
BBX 14 27 2 0
BITMAP
1C00
0E00
0700
0380
01C0
0000
0000
E01C
E01C
E01C
E01C
E01C
E01C
E01C
E01C
E01C
E01C
E01C
E01C
E01C
E01C
E01C
E01C
703C
7DFC
3FDC
0F9C
ENDCHAR
STARTCHAR 00FA
ENCODING 250
SWIDTH 498 0
DWIDTH 18 0
BBX 15 27 2 0
BITMAP
0070
00C0
01C0
0380
0700
0000
0000
E00E
E00E
E00E
E00E
E00E
E00E
E00E
E00E
E00E
E00E
E00E
E00E
E00E
E00E
E00E
E01E
703E
7CFE
3FEE
0F8E
ENDCHAR
STARTCHAR 00FB
ENCODING 251
SWIDTH 498 0
DWIDTH 18 0
BBX 15 27 2 0
BITMAP
0380
06C0
0CE0
1C70
3838
0000
0000
E00E
E00E
E00E
E00E
E00E
E00E
E00E
E00E
E00E
E00E
E00E
E00E
E00E
E00E
E00E
E01E
703E
7CFE
3FEE
0F8E
ENDCHAR
STARTCHAR 00FC
ENCODING 252
SWIDTH 498 0
DWIDTH 18 0
BBX 14 27 2 0
BITMAP
1C60
1C60
1C60
1C60
0000
0000
0000
E01C
E01C
E01C
E01C
E01C
E01C
E01C
E01C
E01C
E01C
E01C
E01C
E01C
E01C
E01C
E01C
703C
7DFC
3FDC
0F9C
ENDCHAR
STARTCHAR 00FD
ENCODING 253
SWIDTH 443 0
DWIDTH 16 0
BBX 15 34 0 -7
BITMAP
0070
00E0
01C0
0380
0300
0000
0000
E00E
E00E
600C
701C
701C
3018
3038
3838
1830
1830
1C70
1C60
0C60
0CE0
0EC0
06C0
06C0
0780
0380
0380
0380
0300
0700
0700
0600
0E00
0E00
ENDCHAR
STARTCHAR 00FE
ENCODING 254
SWIDTH 498 0
DWIDTH 18 0
BBX 15 33 2 -7
BITMAP
E000
E000
E000
E000
E000
E000
E7E0
EFF0
FEF8
F83C
F01C
F00C
E00E
E00E
E00E
E00E
E00E
E00E
E00E
E00E
F00C
F01C
F83C
FEF8
EFF0
E7C0
E000
E000
E000
E000
E000
E000
E000
ENDCHAR
STARTCHAR 00FF
ENCODING 255
SWIDTH 443 0
DWIDTH 16 0
BBX 15 34 0 -7
BITMAP
0C70
0C70
0C70
0C70
0000
0000
0000
E006
E00E
700C
700C
701C
3018
3818
3838
1830
1830
1C70
1C60
0C60
0EE0
0EC0
06C0
06C0
0780
0380
0380
0380
0300
0700
0700
0600
0E00
0E00
ENDCHAR
STARTCHAR 0131
ENCODING 305
SWIDTH 221 0
DWIDTH 8 0
BBX 3 20 3 0
BITMAP
E0
E0
E0
E0
E0
E0
E0
E0
E0
E0
E0
E0
E0
E0
E0
E0
E0
E0
E0
E0
ENDCHAR
STARTCHAR 0141
ENCODING 321
SWIDTH 443 0
DWIDTH 16 0
BBX 16 26 0 0
BITMAP
1C00
1C00
1C00
1C00
1C00
1C00
1C00
1C00
1C00
1C30
1CF0
1FF0
1F80
FE00
FC00
9C00
1C00
1C00
1C00
1C00
1C00
1C00
1C00
1C00
1FFF
1FFF
ENDCHAR
STARTCHAR 0142
ENCODING 322
SWIDTH 221 0
DWIDTH 8 0
BBX 9 26 0 0
BITMAP
1C00
1C00
1C00
1C00
1C00
1C00
1C00
1C00
1C00
1D80
1F80
3F00
7C00
FC00
DC00
1C00
1C00
1C00
1C00
1C00
1C00
1C00
1C00
1C00
1C00
1C00
ENDCHAR
STARTCHAR 0152
ENCODING 338
SWIDTH 941 0
DWIDTH 34 0
BBX 31 26 1 0
BITMAP
01F87FFE
07FE7FFE
0F9F7000
1C07F000
3803F000
7001F000
7000F000
7000F000
60007000
E0007000
E0007000
E0007FFE
E0007FFE
E0007000
E0007000
E0007000
E0007000
60007000
7000F000
7000F000
3801F000
3801F000
1C03F000
0F9FF000
07FF7FFE
01FC7FFE
ENDCHAR
STARTCHAR 0153
ENCODING 339
SWIDTH 775 0
DWIDTH 28 0
BBX 27 20 1 0
BITMAP
07C07C00
1FF1FF00
3EFBEF80
383B83C0
701F01C0
701F00C0
E00E00E0
E00E00E0
E00E00E0
E00FFFE0
E00FFFE0
E00E0000
E00E0000
E00E00E0
700F00E0
701F01C0
783F81C0
3EFBEF80
1FF1FF00
07C07C00
ENDCHAR
STARTCHAR 0160
ENCODING 352
SWIDTH 498 0
DWIDTH 18 0
BBX 17 33 1 0
BITMAP
181C00
0C3800
067000
03E000
03C000
000000
000000
07E000
1FF800
3EFC00
700E00
700F00
E00700
E00700
E00700
F00000
700000
7C0000
3F8000
0FF000
01FC00
003E00
000F00
000780
000380
E00380
E00380
E00380
700700
700700
3F7E00
1FFC00
07F000
ENDCHAR
STARTCHAR 0161
ENCODING 353
SWIDTH 443 0
DWIDTH 16 0
BBX 14 27 1 0
BITMAP
3838
1C70
0EE0
06C0
0380
0000
0000
0FC0
1FF0
3EF8
783C
701C
701C
7000
7800
3F00
1FE0
07F8
00F8
003C
001C
E01C
E01C
703C
7CF8
3FF0
0FC0
ENDCHAR
STARTCHAR 0178
ENCODING 376
SWIDTH 498 0
DWIDTH 18 0
BBX 17 32 1 0
BITMAP
0E3000
0E3000
0E3000
0E3000
000000
000000
E00380
E00700
700700
700E00
380E00
380E00
3C1C00
1C1C00
1C3800
0E3800
0E7000
077000
076000
03E000
03C000
01C000
01C000
01C000
01C000
01C000
01C000
01C000
01C000
01C000
01C000
01C000
ENDCHAR
STARTCHAR 017D
ENCODING 381
SWIDTH 443 0
DWIDTH 16 0
BBX 15 33 1 0
BITMAP
3838
1C70
0EE0
06C0
0380
0000
0000
FFFE
FFFE
001E
001C
003C
0038
0078
0070
00F0
00E0
01C0
03C0
0380
0780
0700
0F00
0E00
1E00
1C00
3C00
3800
7800
7000
E000
FFFE
FFFE
ENDCHAR
STARTCHAR 017E
ENCODING 382
SWIDTH 443 0
DWIDTH 16 0
BBX 14 27 1 0
BITMAP
3838
1C70
0CE0
07C0
0380
0000
0000
7FFC
7FFC
001C
0038
0078
0070
00E0
01E0
01C0
0380
0700
0F00
0E00
1C00
3C00
3800
7000
F000
FFFC
FFFC
ENDCHAR
STARTCHAR 0192
ENCODING 402
SWIDTH 553 0
DWIDTH 20 0
BBX 18 33 1 -7
BITMAP
0007C0
001FC0
003E00
003000
007000
006000
006000
00E000
00E000
00E000
00E000
1FFF00
1FFF00
00E000
00E000
00E000
00E000
00E000
00E000
00E000
00E000
00E000
01C000
01C000
01C000
01C000
01C000
01C000
038000
038000
CF0000
FE0000
F80000
ENDCHAR
STARTCHAR 02C6
ENCODING 710
SWIDTH 221 0
DWIDTH 8 0
BBX 11 5 -1 22
BITMAP
0E00
1B00
3B80
71C0
E0E0
ENDCHAR
STARTCHAR 02C7
ENCODING 711
SWIDTH 221 0
DWIDTH 8 0
BBX 11 5 -1 22
BITMAP
E0E0
71C0
3B80
1B00
0E00
ENDCHAR
STARTCHAR 02C9
ENCODING 713
SWIDTH 221 0
DWIDTH 8 0
BBX 11 2 -1 23
BITMAP
FFE0
FFE0
ENDCHAR
STARTCHAR 02D8
ENCODING 728
SWIDTH 221 0
DWIDTH 8 0
BBX 10 5 -1 22
BITMAP
8040
C0C0
6180
7F00
1E00
ENDCHAR
STARTCHAR 02D9
ENCODING 729
SWIDTH 221 0
DWIDTH 8 0
BBX 3 4 3 23
BITMAP
E0
E0
E0
E0
ENDCHAR
STARTCHAR 02DA
ENCODING 730
SWIDTH 221 0
DWIDTH 8 0
BBX 7 8 0 22
BITMAP
38
44
C2
82
82
C2
44
38
ENDCHAR
STARTCHAR 02DB
ENCODING 731
SWIDTH 221 0
DWIDTH 8 0
BBX 9 8 0 -6
BITMAP
0600
1800
7000
E000
E000
E180
FF00
7C00
ENDCHAR
STARTCHAR 02DC
ENCODING 732
SWIDTH 221 0
DWIDTH 8 0
BBX 11 4 -2 22
BITMAP
3020
FC60
CFC0
8180
ENDCHAR
STARTCHAR 02DD
ENCODING 733
SWIDTH 221 0
DWIDTH 8 0
BBX 11 5 0 22
BITMAP
1CE0
39C0
3380
6700
C600
ENDCHAR
STARTCHAR 03BC
ENCODING 956
SWIDTH 498 0
DWIDTH 18 0
BBX 14 27 2 -7
BITMAP
E01C
E01C
E01C
E01C
E01C
E01C
E01C
E01C
E01C
E01C
E01C
E01C
E01C
E01C
E01C
E01C
F03C
FDFC
FFDC
FF9C
E000
E000
E000
E000
E000
E000
E000
ENDCHAR
STARTCHAR 2013
ENCODING 8211
SWIDTH 498 0
DWIDTH 18 0
BBX 18 2 0 9
BITMAP
FFFFC0
FFFFC0
ENDCHAR
STARTCHAR 2014
ENCODING 8212
SWIDTH 996 0
DWIDTH 36 0
BBX 36 2 0 9
BITMAP
FFFFFFFFF0
FFFFFFFFF0
ENDCHAR
STARTCHAR 2018
ENCODING 8216
SWIDTH 221 0
DWIDTH 8 0
BBX 6 8 1 17
BITMAP
E0
60
70
30
38
18
1C
0C
ENDCHAR
STARTCHAR 2019
ENCODING 8217
SWIDTH 221 0
DWIDTH 8 0
BBX 6 8 1 17
BITMAP
0C
1C
18
38
30
70
60
E0
ENDCHAR
STARTCHAR 201A
ENCODING 8218
SWIDTH 221 0
DWIDTH 8 0
BBX 6 8 1 -4
BITMAP
0C
1C
18
38
30
70
60
E0
ENDCHAR
STARTCHAR 201C
ENCODING 8220
SWIDTH 332 0
DWIDTH 12 0
BBX 10 8 1 17
BITMAP
EE00
6600
7700
3300
3B80
1980
1DC0
0CC0
ENDCHAR
STARTCHAR 201D
ENCODING 8221
SWIDTH 332 0
DWIDTH 12 0
BBX 10 8 1 17
BITMAP
0CC0
1DC0
1980
3B80
3300
7700
6600
EE00
ENDCHAR
STARTCHAR 201E
ENCODING 8222
SWIDTH 332 0
DWIDTH 12 0
BBX 10 8 1 -4
BITMAP
0CC0
1DC0
1980
3B80
3300
7600
6600
EC00
ENDCHAR
STARTCHAR 2020
ENCODING 8224
SWIDTH 443 0
DWIDTH 16 0
BBX 12 30 2 -4
BITMAP
0600
0600
0600
0600
0600
0600
0600
FDF0
FBF0
0600
0600
0600
0600
0600
0600
0600
0600
0600
0600
0600
0600
0600
0600
0600
0600
0600
0600
0600
0600
0600
ENDCHAR
STARTCHAR 2021
ENCODING 8225
SWIDTH 443 0
DWIDTH 16 0
BBX 13 30 2 -4
BITMAP
0700
0700
0700
0600
0200
0200
0200
FFF8
FFF8
0200
0200
0200
0700
0700
0700
0700
0700
0700
0200
0200
8218
FFF8
F278
0200
0200
0200
0700
0700
0700
0700
ENDCHAR
STARTCHAR 2022
ENCODING 8226
SWIDTH 498 0
DWIDTH 18 0
BBX 13 13 2 7
BITMAP
0F80
3FE0
7FF0
7FF0
FFF8
FFF8
FFF8
FFF8
FFF8
7FF0
7FF0
3FE0
0F80
ENDCHAR
STARTCHAR 2026
ENCODING 8230
SWIDTH 996 0
DWIDTH 36 0
BBX 27 4 5 0
BITMAP
E00E00E0
E00E00E0
E00E00E0
E00E00E0
ENDCHAR
STARTCHAR 2030
ENCODING 8240
SWIDTH 996 0
DWIDTH 36 0
BBX 34 26 1 0
BITMAP
1F01800000
3F83800000
60C3000000
C0E7000000
C066000000
C066000000
C06E000000
C06C000000
E0CC000000
60D8000000
3F98000000
1F38000000
0030000000
0031E01E00
0067F07F00
006E38E380
00EC1CC1C0
00D80D80C0
00D80D80C0
01D80D80C0
01980D80C0
03980D80C0
030C0CC0C0
030E18E180
0707F07F00
0603E03E00
ENDCHAR
STARTCHAR 2039
ENCODING 8249
SWIDTH 276 0
DWIDTH 10 0
BBX 7 13 1 3
BITMAP
0E
1C
18
38
70
60
E0
60
70
38
18
1C
0E
ENDCHAR
STARTCHAR 203A
ENCODING 8250
SWIDTH 276 0
DWIDTH 10 0
BBX 7 13 1 3
BITMAP
E0
70
30
38
1C
0C
0E
0C
1C
38
30
70
E0
ENDCHAR
STARTCHAR 2044
ENCODING 8260
SWIDTH 166 0
DWIDTH 6 0
BBX 18 26 -6 0
BITMAP
0001C0
000380
000380
000700
000E00
000E00
001C00
001C00
003800
007000
007000
00E000
00E000
01C000
01C000
038000
070000
070000
0E0000
0E0000
1C0000
180000
380000
700000
700000
E00000
ENDCHAR
STARTCHAR 20AC
ENCODING 8364
SWIDTH 553 0
DWIDTH 20 0
BBX 17 26 1 0
BITMAP
00FE00
03FF80
07FF80
0F0180
0E0000
1C0000
1C0000
180000
380000
FFFE00
FFFE00
380000
380000
380000
380000
FFFC00
FFF800
380000
180000
1C0000
1C0000
0E0000
0F8180
07FF80
03FF80
00FE00
ENDCHAR
STARTCHAR 2122
ENCODING 8482
SWIDTH 996 0
DWIDTH 36 0
BBX 30 15 2 11
BITMAP
FFE7807C
FFE7C07C
0E07C07C
0E07E0FC
0E0760DC
0E0761DC
0E07719C
0E07319C
0E073B9C
0E071B1C
0E071B1C
0E071F1C
0E070E1C
0E070E1C
0E070C1C
ENDCHAR
STARTCHAR 2212
ENCODING 8722
SWIDTH 609 0
DWIDTH 22 0
BBX 18 3 2 8
BITMAP
FFFFC0
FFFFC0
FFFFC0
ENDCHAR
STARTCHAR 2215
ENCODING 8725
SWIDTH 166 0
DWIDTH 6 0
BBX 18 26 -6 0
BITMAP
0001C0
000380
000380
000700
000E00
000E00
001C00
001C00
003800
007000
007000
00E000
00E000
01C000
01C000
038000
070000
070000
0E0000
0E0000
1C0000
180000
380000
700000
700000
E00000
ENDCHAR
STARTCHAR 2219
ENCODING 8729
SWIDTH 276 0
DWIDTH 10 0
BBX 4 4 3 7
BITMAP
60
F0
F0
60
ENDCHAR
STARTCHAR FB01
ENCODING 64257
SWIDTH 443 0
DWIDTH 16 0
BBX 14 26 0 0
BITMAP
0F9C
1F9C
3C1C
3800
3800
3800
FF1C
FF1C
381C
381C
381C
381C
381C
381C
381C
381C
381C
381C
381C
381C
381C
381C
381C
381C
381C
381C
ENDCHAR
STARTCHAR FB02
ENCODING 64258
SWIDTH 443 0
DWIDTH 16 0
BBX 14 26 0 0
BITMAP
0F9C
1F9C
3C1C
381C
381C
381C
FF1C
FF1C
381C
381C
381C
381C
381C
381C
381C
381C
381C
381C
381C
381C
381C
381C
381C
381C
381C
381C
ENDCHAR
ENDFONT
